<svg xmlns="http://www.w3.org/2000/svg" xmlns:xlink="http://www.w3.org/1999/xlink" width="500" zoomAndPan="magnify" viewBox="0 0 375 374.999991" height="500" preserveAspectRatio="xMidYMid meet" version="1.0"><defs><clipPath id="646fa9661c"><path d="M 130.574219 111.859375 L 244.425781 111.859375 L 244.425781 225.710938 L 130.574219 225.710938 Z M 130.574219 111.859375 " clip-rule="nonzero"/></clipPath><clipPath id="baed42dc4f"><path d="M 187.5 111.859375 C 156.058594 111.859375 130.574219 137.347656 130.574219 168.785156 C 130.574219 200.226562 156.058594 225.710938 187.5 225.710938 C 218.941406 225.710938 244.425781 200.226562 244.425781 168.785156 C 244.425781 137.347656 218.941406 111.859375 187.5 111.859375 Z M 187.5 111.859375 " clip-rule="nonzero"/></clipPath><clipPath id="a8bc005811"><path d="M 168.789062 130.671875 L 206 130.671875 L 206 207 L 168.789062 207 Z M 168.789062 130.671875 " clip-rule="nonzero"/></clipPath></defs><g clip-path="url(#646fa9661c)"><g clip-path="url(#baed42dc4f)"><path fill="#c8b3ee" d="M 130.574219 111.859375 L 244.425781 111.859375 L 244.425781 225.710938 L 130.574219 225.710938 Z M 130.574219 111.859375 " fill-opacity="1" fill-rule="nonzero"/></g></g><g clip-path="url(#a8bc005811)"><path fill="#1c1456" d="M 205.484375 144.058594 C 205.484375 143.761719 205.347656 143.558594 205.074219 143.445312 C 204.800781 143.332031 204.558594 143.382812 204.351562 143.59375 C 202.359375 145.582031 200.667969 147.882812 198.59375 149.828125 C 196.941406 151.375 193.609375 154.328125 191.53125 151.878906 C 189.609375 149.601562 193.929688 146.570312 195.367188 145.390625 C 196.695312 144.296875 198.085938 143.246094 199.347656 142.074219 C 200.40625 141.199219 201.179688 140.117188 201.671875 138.835938 C 201.707031 138.714844 201.734375 138.59375 201.75 138.46875 C 201.839844 138.210938 201.785156 137.980469 201.589844 137.785156 C 201.394531 137.589844 201.167969 137.539062 200.90625 137.628906 C 200.027344 137.914062 199.214844 138.324219 198.464844 138.867188 C 197.238281 139.632812 196.039062 140.449219 194.824219 141.238281 C 193.496094 142.085938 192.167969 142.921875 190.761719 143.652344 C 189.6875 144.300781 188.53125 144.726562 187.292969 144.933594 C 187.109375 144.976562 186.925781 144.980469 186.738281 144.941406 C 186.554688 144.902344 186.386719 144.828125 186.234375 144.710938 C 186.085938 144.597656 185.964844 144.457031 185.878906 144.289062 C 185.792969 144.121094 185.746094 143.941406 185.742188 143.75 C 185.496094 142.332031 186.238281 140.953125 187.160156 139.941406 C 189.503906 137.371094 193.152344 136.042969 196.238281 134.667969 C 198.074219 133.957031 199.78125 133.011719 201.363281 131.835938 C 201.546875 131.628906 201.585938 131.398438 201.480469 131.140625 C 201.375 130.886719 201.183594 130.75 200.90625 130.734375 C 197.519531 130.804688 194.25 131.460938 191.09375 132.707031 C 187.941406 133.949219 185.101562 135.699219 182.578125 137.960938 C 180.136719 140.175781 178.144531 143.035156 177.707031 146.351562 C 177.414062 149.136719 177.578125 151.890625 178.203125 154.617188 C 177.023438 156.019531 176.035156 157.542969 175.230469 159.191406 C 174 161.488281 172.96875 163.875 172.132812 166.347656 C 170.382812 171.589844 168.976562 177.082031 168.855469 182.628906 C 168.773438 188.335938 169.8125 193.828125 171.980469 199.109375 C 173.539062 202.9375 176.949219 206.832031 181.480469 206.320312 C 183.027344 206.148438 184.605469 205.503906 185.335938 204.058594 C 186 202.730469 185.773438 201.210938 185.46875 199.859375 C 185.074219 198.382812 184.605469 196.933594 184.0625 195.507812 C 183.238281 193.054688 182.5625 190.566406 182.03125 188.035156 C 180.917969 182.855469 180.800781 177.652344 181.675781 172.425781 C 182.09375 170.097656 182.703125 167.78125 183.300781 165.480469 C 183.738281 163.675781 184.402344 161.960938 185.289062 160.332031 C 189.542969 162.527344 194.699219 160.230469 198.226562 157.464844 C 202.070312 154.464844 206.183594 149.246094 205.484375 144.058594 Z M 205.484375 144.058594 " fill-opacity="1" fill-rule="nonzero"/></g></svg>